# xmcd
#
# Track frame offsets:
#	187
#	17635
#	35367
#	52162
#	65135
#	79542
#	97690
#	113312
#	130767
#	146315
#
# Disc length: 2282 seconds
#
# Revision: 1
# Processed by: cddbd v1.5.1PL0 Copyright (c) Steve Scherf et al.
# Submitted via: CDex 1.50Beta5
#
DISCID=7408e80a
DTITLE=TOPS - Vehicle
DYEAR=1987
DGENRE=Pop
TTITLE0=Hold on! I’m comin’
TTITLE1=Get Back
TTITLE2=She’s A Lady
TTITLE3=Gimme Dat Ding
TTITLE4=Vehicle
TTITLE5=Sugar Baby Love
TTITLE6=Move Over
TTITLE7=黒い炎
TTITLE8=Take Me In Your Arms
TTITLE9=星に願いを
EXTD=
EXTT0=
EXTT1=
EXTT2=
EXTT3=
EXTT4=
EXTT5=
EXTT6=
EXTT7=
EXTT8=
EXTT9=
PLAYORDER=
